<svg width="40" height="40" viewBox="0 0 40 40" fill="none" xmlns="http://www.w3.org/2000/svg">
<g clip-path="url(#clip0_1_142)">
<path d="M20 3.33331C10.8 3.33331 3.33331 10.8 3.33331 20C3.33331 29.2 10.8 36.6666 20 36.6666C29.2 36.6666 36.6666 29.2 36.6666 20C36.6666 10.8 29.2 3.33331 20 3.33331ZM20 8.33331C22.7666 8.33331 25 10.5666 25 13.3333C25 16.1 22.7666 18.3333 20 18.3333C17.2333 18.3333 15 16.1 15 13.3333C15 10.5666 17.2333 8.33331 20 8.33331ZM20 32C15.8333 32 12.15 29.8666 9.99998 26.6333C10.05 23.3166 16.6666 21.5 20 21.5C23.3166 21.5 29.95 23.3166 30 26.6333C27.85 29.8666 24.1666 32 20 32Z" fill="#E6FFFF"/>
</g>
<defs>
<clipPath id="clip0_1_142">
<rect width="40" height="40" fill="white"/>
</clipPath>
</defs>
</svg>
