<svg width="38" height="38" viewBox="0 0 38 38" fill="none" xmlns="http://www.w3.org/2000/svg">
<path d="M31.5914 12.5401C31.6107 12.8193 31.6107 13.0984 31.6107 13.3802C31.6107 21.9649 25.0754 31.8656 13.1253 31.8656V31.8604C9.5952 31.8656 6.13843 30.8544 3.16667 28.9479C3.67997 29.0096 4.19585 29.0405 4.71302 29.0418C7.63847 29.0443 10.4803 28.0628 12.7818 26.2553C10.0017 26.2025 7.56385 24.3899 6.7122 21.7436C7.68607 21.9314 8.68952 21.8928 9.64537 21.6317C6.61443 21.0193 4.43385 18.3563 4.43385 15.2636C4.43385 15.2353 4.43385 15.2083 4.43385 15.1813C5.33696 15.6843 6.34813 15.9634 7.38246 15.9943C4.52776 14.0865 3.64781 10.2888 5.37169 7.31958C8.67022 11.3784 13.537 13.8459 18.7614 14.107C18.2378 11.8506 18.953 9.48601 20.6409 7.89979C23.2576 5.44004 27.373 5.56611 29.8328 8.18152C31.2878 7.89464 32.6823 7.36075 33.9585 6.6043C33.4735 8.10819 32.4585 9.38567 31.1025 10.1974C32.3903 10.0456 33.6485 9.70085 34.8333 9.17469C33.9611 10.4817 32.8625 11.6203 31.5914 12.5401Z" fill="white"/>
</svg>
